<?xml version="1.0" encoding="UTF-8"?>
<!DOCTYPE svg PUBLIC "-//W3C//DTD SVG 1.1//EN" "http://www.w3.org/Graphics/SVG/1.1/DTD/svg11.dtd">
<!-- Creator: CorelDRAW 2018 (64 Bit) -->
<svg xmlns="http://www.w3.org/2000/svg" xml:space="preserve" width="74.3518mm" height="74.3518mm" version="1.1" style="shape-rendering:geometricPrecision; text-rendering:geometricPrecision; image-rendering:optimizeQuality; fill-rule:evenodd; clip-rule:evenodd"
viewBox="0 0 7087.13 7087.13"
 xmlns:xlink="http://www.w3.org/1999/xlink">
 <defs>
  <style type="text/css">
   <![CDATA[
    .fil2 {fill:#FEFEFE}
    .fil1 {fill:#FEFEFE;fill-rule:nonzero}
    .fil0 {fill:url(#id0)}
   ]]>
  </style>
  <linearGradient id="id0" gradientUnits="userSpaceOnUse" x1="-0" y1="3543.57" x2="7087.13" y2="3543.57">
   <stop offset="0" style="stop-opacity:1; stop-color:darkorange"/>
   <stop offset="0.45098" style="stop-opacity:1; stop-color:#FF5100"/>
   <stop offset="1" style="stop-opacity:1; stop-color:#FF0080"/>
  </linearGradient>
 </defs>
 <g id="Capa_x0020_1">
  <metadata id="CorelCorpID_0Corel-Layer"/>
  <circle class="fil0" cx="3543.57" cy="3543.57" r="3543.57"/>
  <path class="fil1" d="M1987.32 5253.95l184.58 -2.69c18.39,-219.57 419.39,-896.65 538.26,-837.89 53.83,27.14 -139.05,306.81 -253.43,513.59 -208.57,379.47 125.14,456.17 368.93,81.86l-34.98 -30.72c-107.65,154.52 -257.25,143.75 -163.05,-67.29 55.4,-116.84 340.67,-544.31 187.27,-613.83 -111.47,-50.91 -315.78,144.88 -415.35,313.98 55.17,-125.81 43.06,-267.1 -20.19,-311.29 -115.73,-75.8 -278.77,60.11 -392.03,279 0,-135.24 -41.71,-256.57 -203.19,-296.94 -146.68,-37 -331.02,23.55 -405.04,186.6 -74.01,163.04 -4.03,301.42 95.54,341.57 78.05,32.29 174.94,1.34 234.14,-128.51 -127.83,37.45 -219.34,-48.67 -199.15,-175.38 32.29,-203.42 335.07,-231.67 379.46,-37.68 36.34,163.04 -269.12,609.13 -429.25,782.94l263.74 0c47.1,-137.49 470.07,-926.47 587.37,-859.2 92.62,54.72 -156.54,421.86 -323.63,861.88zm867.72 -4.26c72.44,0 137.03,-67.29 208.35,-211.26 -53.83,150.71 -16.15,211.26 53.6,211.26 75.13,0 188.17,-95.54 264.87,-257.02l-26.92 -40.37c-52.47,87.46 -113.03,129.18 -148.02,123.8 -30.95,-4.04 -40.37,-45.75 -5.38,-127.84 48.44,-114.37 129.18,-252.98 164.17,-267.78l-174.94 0c13.46,59.21 -85.89,213.95 -150.26,300.07 -41.71,55.17 -83.43,95.55 -114.38,95.55 -28.25,0 -34.98,-45.75 -9.42,-118.41 22.88,-60.56 121.11,-251.64 154.75,-277.21l-150.71 1.34c8.07,16.15 -9.42,57.87 -43.07,125.14l-108.55 209.92c-72.43,152.06 6.73,234.14 85.9,232.8zm573.7 344.48c144.88,4.03 289.98,-90.16 394.94,-285.28 78.05,-143.98 217.98,-461.55 326.98,-713.19 45.75,-106.3 125.14,-314.88 181.67,-353.9l-154.75 1.34c-28.26,213.96 -251.63,4.04 -480.4,4.04 -149.14,0 -252.3,67.06 -269.8,201.84 -33.64,254.33 237.51,321.62 339.77,87.47 -142.64,10.76 -198.93,-133.45 -75.35,-187.27 115.72,-50.91 296.04,97.11 418.49,65.94 -98.23,219.56 -211.26,463.12 -310.84,635.36 -115.72,200.5 -271.59,305.46 -381.49,310.84 -82.31,4.04 -138.82,-48.44 -134.79,-157.44 -177.17,47.1 -142.19,383.51 145.56,390.24zm600.37 -539.15c-34.98,261.05 239.76,266.44 414.46,6.73 52.48,28.25 135.92,-2.7 169.55,-78.05l-33.64 -29.61c-30.95,56.51 -90.16,80.74 -103.61,59.21 84.77,-125.14 91.5,-313.53 -40.6,-332.38 -190.41,-26.91 -383.29,174.93 -406.16,374.09zm293.58 -37.68c-45.75,71.55 -214.41,110.34 -187.72,-21.53 10.76,-57.86 48.22,-127.83 97.79,-181.66 48.21,-53.83 107.42,-90.15 165.96,-83.43 -120.44,59.21 -184.8,207.23 -76.03,286.62zm47.55 -51.13c-79.85,-49.79 -1.35,-199.16 73.33,-217.99 26.92,49.79 -17.71,153.4 -73.33,217.99zm320.71 -300.53c-212.39,387.32 -73.79,636.26 143.53,645.68 142.64,5.39 319.14,-92.85 451.01,-324.29l-30.95 -32.29c-100.92,145.32 -247.82,172.24 -325.87,154.74 -122.46,-25.56 -158.78,-201.84 -55.17,-423.64 87.46,-184.36 315.11,-356.6 430.82,-367.36 37.68,-2.7 63.25,10.76 69.97,45.75 10.77,63.24 -78.05,137.25 -123.79,102.27 12.11,166.86 1.34,41.71 6.72,141.29 139.73,-29.61 236.16,-187.04 173.15,-302.77 -87.03,-149.14 -368.26,-58.98 -524.58,82.09 -80.74,71.32 -155.87,170.89 -214.85,278.54zm531.74 389.34c-34.98,261.05 239.76,266.44 414.46,6.73 52.48,28.25 135.92,-2.7 169.55,-78.05l-33.64 -29.61c-30.95,56.51 -90.16,80.74 -103.61,59.21 84.77,-125.14 91.5,-313.53 -40.6,-332.38 -190.41,-26.91 -383.29,174.93 -406.16,374.09zm293.58 -37.68c-45.75,71.55 -214.41,110.34 -187.72,-21.53 10.76,-57.86 48.22,-127.83 97.79,-181.66 48.21,-53.83 107.42,-90.15 165.96,-83.43 -120.44,59.21 -184.8,207.23 -76.03,286.62zm47.55 -51.13c-79.85,-49.79 -1.35,-199.16 73.33,-217.99 26.92,49.79 -17.71,153.4 -73.33,217.99z"/>
  <g id="_2539920997328">
   <circle class="fil2" cx="3780.13" cy="1724.91" r="239.47"/>
   <circle class="fil2" cx="4476.14" cy="2297.83" r="228.13"/>
   <circle class="fil2" cx="3810.92" cy="2852.2" r="228.13"/>
   <rect class="fil2" x="2482.21" y="1663.28" width="688.24" height="74.14" rx="24.46" ry="37.07"/>
   <rect class="fil2" x="2439.07" y="2858.29" width="688.24" height="74.14" rx="24.46" ry="37.07"/>
   <rect class="fil2" x="2211.17" y="2261.01" width="688.24" height="74.14" rx="24.46" ry="37.07"/>
  </g>
  <path class="fil1" d="M2105.46 6459.3c233.84,-35.33 403.24,-575.76 487.42,-715.03 109.12,36.37 220.33,68.59 311.79,-2.08 40.53,-33.26 65.47,-78.98 74.83,-126.79 -36.37,36.37 -121.6,44.69 -223.45,41.57 -173.56,-5.19 -398.04,-38.45 -527.95,-11.43 -131.99,25.98 -234.88,138.22 -199.54,253.59 30.14,100.81 169.4,104.97 226.56,18.7 -71.72,12.48 -83.15,-89.37 -32.22,-156.92 63.4,-84.19 181.87,-62.36 281.64,-36.38 -94.58,210.98 -265.02,551.86 -511.32,494.71 67.55,80.02 95.6,156.92 112.24,240.07zm377.26 -29.27c55.94,0 105.83,-51.97 160.92,-163.17 -41.58,116.4 -12.48,163.17 41.4,163.17 58.02,0 145.32,-73.79 204.56,-198.5l-20.79 -31.18c-40.53,67.55 -87.29,99.77 -114.32,95.61 -23.91,-3.12 -31.18,-35.33 -4.16,-98.73 37.41,-88.34 99.77,-195.38 126.79,-206.82l-135.11 0c10.4,45.73 -66.33,165.25 -116.05,231.77 -32.22,42.61 -64.44,73.79 -88.34,73.79 -21.82,0 -27.01,-35.33 -7.27,-91.46 17.67,-46.76 93.54,-194.35 119.52,-214.1l-116.4 1.04c6.24,12.48 -7.27,44.7 -33.26,96.65l-83.83 162.13c-55.94,117.44 5.19,180.84 66.34,179.8zm415.37 -1.04c67.55,11.43 171.48,-47.81 253.59,-194.35l-20.79 -32.22c-76.9,126.79 -225.52,128.87 -150.7,-15.59l80.03 -154.85 78.98 0 25.98 -42.62 -87.3 0 141.35 -289.96 -115.36 0c7.27,14.56 -9.35,45.73 -15.58,58.2l-111.21 231.76 -76.9 0 -25.98 42.62 83.15 0 -76.91 151.73c-73.96,145.5 -52.14,233.85 17.67,245.27zm205.6 -149.31c-27.02,201.62 185.17,205.77 320.1,5.19 40.53,21.83 104.97,-2.08 130.95,-60.28l-25.98 -22.87c-23.91,43.66 -69.63,62.36 -80.02,45.73 65.47,-96.65 70.67,-242.16 -31.36,-256.7 -147.06,-20.79 -296.02,135.11 -313.69,288.92zm226.74 -29.1c-35.33,55.26 -165.59,85.22 -144.98,-16.63 8.31,-44.69 37.24,-98.73 75.52,-140.3 37.24,-41.57 82.97,-69.63 128.18,-64.44 -93.01,45.72 -142.72,160.05 -58.72,221.37zm36.73 -39.49c-61.67,-38.46 -1.04,-153.82 56.64,-168.37 20.78,38.46 -13.69,118.48 -56.64,168.37zm242.83 214.61c67.55,22.86 198.5,-73.8 260.86,-192.27l-20.78 -32.22c-42.62,75.86 -92.5,100.81 -124.72,94.58 -59.24,-14.56 33.26,-175.64 128.87,-304.69l-170.44 1.04c20.44,-45.72 -62.54,-81.06 -107.22,-15.41 40.53,35.16 -20.79,192.27 -64.44,250.47l32.22 16.62 108.08 -194.35 66.34 -2.08 -102.54 164.21c-74.83,122.64 -60.27,194.35 -6.23,214.1zm401.33 -464.38c59.24,0 77.95,-91.46 17.67,-91.46 -58.2,0 -77.94,91.46 -17.67,91.46zm-139.09 475.64c67.38,11.43 171.31,-47.81 253.41,-194.17l-20.79 -32.22c-76.9,126.79 -225.35,128.87 -150.69,-15.58l99.77 -203.53 -118.48 -1.04c5.19,11.44 3.12,20.79 -1.04,35.34l-79.85 166.1c-70.5,146.54 -51.8,233.66 17.66,245.1zm294.29 -5.89c54.05,0 110.17,-65.47 146.54,-139.26 -22.87,89.37 -5.19,133.03 32.22,138.22 57.16,9.35 159.01,-65.47 242.15,-192.27l-23.9 -28.06c-89.38,131.99 -192.27,110.17 -117.44,-40.53 39.49,-78.98 91.46,-168.36 115.36,-178.76l-125.75 0c6.23,13.52 -11.44,47.81 -22.87,70.68 -1.04,-41.58 -30.14,-68.6 -70.67,-71.72 -88.34,-3.12 -179.8,99.77 -226.56,187.07 -66.51,120.56 -31.18,254.63 50.92,254.63zm42.62 -135.11c-53.01,0 -33.26,-81.07 13.51,-152.78 37.41,-59.24 92.5,-119.52 139.27,-96.65 30.13,19.75 31.17,54.05 -4.17,118.48 -36.37,65.47 -97.69,130.95 -148.61,130.95zm399.94 131.99c99.6,30.14 190.19,-76.9 253.94,-193.31l-22 -31.18c-36.55,64.44 -98.05,99.77 -138.75,95.61 -59.07,-7.27 -15.58,-128.87 9.52,-183.96 70.85,-16.62 141.69,-85.22 193.83,-164.21 75.52,-117.43 107.74,-258.78 24.94,-289.96 -143.77,-54.04 -315.42,327.37 -366.01,543.55 -7.27,32.22 -12.47,62.36 -15.58,89.38 -7.27,67.55 8.31,118.47 60.1,134.07zm116.23 -371.03c20.79,-60.27 47.98,-125.74 73.96,-183.95 45.91,-96.65 90.76,-170.44 111.55,-159.01 34.3,17.66 -2.08,122.64 -57.33,212.01 -39.49,66.51 -89.55,124.72 -128.18,130.95z"/>
 </g>
</svg>
